<svg width="12" height="16" viewBox="0 0 12 16" fill="none" xmlns="http://www.w3.org/2000/svg">
<path fill-rule="evenodd" clip-rule="evenodd" d="M11.4598 6.11427C11.6988 4.51613 10.4821 3.65707 8.81836 3.08399L9.3581 0.919169L8.04031 0.590806L7.51489 2.69863C7.16845 2.61223 6.81267 2.53081 6.45907 2.4501L6.9883 0.328363L5.67133 0L5.1313 2.16412C4.84461 2.09884 4.56303 2.03433 4.28985 1.96636L4.29137 1.95955L2.47411 1.50575L2.12356 2.91323C2.12356 2.91323 3.10125 3.13735 3.08064 3.15114C3.61428 3.28433 3.71078 3.63758 3.69475 3.91758L3.07994 6.38382C3.11669 6.39315 3.16435 6.40665 3.21694 6.42778L3.17862 6.41822C3.14612 6.41008 3.11234 6.40163 3.07765 6.39333L2.21589 9.84818C2.15068 10.0103 1.98514 10.2536 1.61205 10.1612C1.62526 10.1804 0.65426 9.9222 0.65426 9.9222L0 11.4306L1.71489 11.8582C1.90269 11.9052 2.08826 11.9536 2.27195 12.0015L2.27209 12.0015C2.40042 12.035 2.52783 12.0682 2.65443 12.1006L2.10912 14.2902L3.42538 14.6186L3.96542 12.4522C4.32501 12.5498 4.67397 12.6398 5.0156 12.7247L4.47739 14.8809L5.79524 15.2093L6.3405 13.0237C8.58762 13.449 10.2773 13.2776 10.9885 11.245C11.5615 9.60863 10.9599 8.66475 9.77774 8.04923C10.6388 7.85065 11.2874 7.28432 11.4603 6.11445L11.4599 6.11415L11.4598 6.11427ZM8.44894 10.3362C8.0753 11.8376 5.72526 11.2169 4.65004 10.9329C4.55332 10.9074 4.46691 10.8845 4.39319 10.8662L5.11683 7.96533C5.20667 7.98776 5.31644 8.0124 5.4408 8.0403L5.44086 8.04032C6.55305 8.28991 8.83176 8.8013 8.449 10.3362H8.44894ZM5.66394 6.69396C6.56036 6.9332 8.5159 7.45509 8.85647 6.09055H8.85659C9.20435 4.69496 7.3039 4.2742 6.37571 4.0687C6.27129 4.04558 6.17918 4.02519 6.10396 4.00644L5.44788 6.63739C5.50982 6.65283 5.58251 6.67223 5.66394 6.69396Z" fill="white"/>
</svg>
