<svg width="52" height="47" viewBox="0 0 52 47" fill="none" xmlns="http://www.w3.org/2000/svg">
<g filter="url(#filter0_d_2439_2336)">
<path d="M22.02 11H20.98C19.39 11 18.75 11.6 18.75 13.12V25H24.25V13.12C24.24 11.6 23.6 11 22.02 11Z" fill="#777777"/>
<path d="M30.52 16H29.48C27.89 16 27.25 16.61 27.25 18.12V25H32.75V18.12C32.75 16.61 32.1 16 30.52 16Z" fill="#5ED5A8"/>
<path d="M16.75 24.2598H35.25C35.66 24.2598 36 24.5998 36 25.0098C36 25.4198 35.66 25.7598 35.25 25.7598H16.75C16.34 25.7598 16 25.4198 16 24.9998C16 24.5798 16.34 24.2598 16.75 24.2598Z" fill="#777777"/>
</g>
<defs>
<filter id="filter0_d_2439_2336" x="0" y="0" width="52" height="46.7598" filterUnits="userSpaceOnUse" color-interpolation-filters="sRGB">
<feFlood flood-opacity="0" result="BackgroundImageFix"/>
<feColorMatrix in="SourceAlpha" type="matrix" values="0 0 0 0 0 0 0 0 0 0 0 0 0 0 0 0 0 0 127 0" result="hardAlpha"/>
<feOffset dy="5"/>
<feGaussianBlur stdDeviation="8"/>
<feComposite in2="hardAlpha" operator="out"/>
<feColorMatrix type="matrix" values="0 0 0 0 0.368627 0 0 0 0 0.835294 0 0 0 0 0.658824 0 0 0 0.25 0"/>
<feBlend mode="normal" in2="BackgroundImageFix" result="effect1_dropShadow_2439_2336"/>
<feBlend mode="normal" in="SourceGraphic" in2="effect1_dropShadow_2439_2336" result="shape"/>
</filter>
</defs>
</svg>
