<svg width="52" height="52" viewBox="0 0 52 52" fill="none" xmlns="http://www.w3.org/2000/svg">
<g filter="url(#filter0_d_2439_1433)">
<path d="M20.3679 13.14L20.4379 16.93C20.4479 17.45 20.1179 18.14 19.6979 18.45L17.2179 20.33C15.6279 21.53 15.8879 23 17.7879 23.6L21.0179 24.61C21.5579 24.78 22.1279 25.37 22.2679 25.92L23.0379 28.86C23.6479 31.18 25.1679 31.41 26.4279 29.37L28.1879 26.52C28.5079 26 29.2679 25.61 29.8679 25.64L33.2079 25.81C35.5979 25.93 36.2779 24.55 34.7179 22.73L32.7379 20.43C32.3679 20 32.1979 19.2 32.3679 18.66L33.3879 15.42C33.9779 13.52 32.9179 12.47 31.0279 13.09L28.0779 14.06C27.5779 14.22 26.8279 14.11 26.4079 13.8L23.3279 11.58C21.6579 10.39 20.3279 11.09 20.3679 13.14Z" fill="#5ED5A8"/>
<path d="M16.2179 29.4702L19.2479 26.4402C19.5379 26.1502 20.0179 26.1502 20.3079 26.4402C20.5979 26.7302 20.5979 27.2102 20.3079 27.5002L17.2779 30.5302C17.1279 30.6802 16.9379 30.7502 16.7479 30.7502C16.5579 30.7502 16.3679 30.6802 16.2179 30.5302C15.9279 30.2402 15.9279 29.7602 16.2179 29.4702Z" fill="#777777"/>
</g>
<defs>
<filter id="filter0_d_2439_1433" x="0" y="0" width="51.5566" height="51.7617" filterUnits="userSpaceOnUse" color-interpolation-filters="sRGB">
<feFlood flood-opacity="0" result="BackgroundImageFix"/>
<feColorMatrix in="SourceAlpha" type="matrix" values="0 0 0 0 0 0 0 0 0 0 0 0 0 0 0 0 0 0 127 0" result="hardAlpha"/>
<feOffset dy="5"/>
<feGaussianBlur stdDeviation="8"/>
<feComposite in2="hardAlpha" operator="out"/>
<feColorMatrix type="matrix" values="0 0 0 0 0.368627 0 0 0 0 0.835294 0 0 0 0 0.658824 0 0 0 0.25 0"/>
<feBlend mode="normal" in2="BackgroundImageFix" result="effect1_dropShadow_2439_1433"/>
<feBlend mode="normal" in="SourceGraphic" in2="effect1_dropShadow_2439_1433" result="shape"/>
</filter>
</defs>
</svg>
