<svg width="56" height="56" viewBox="0 0 56 56" fill="none" xmlns="http://www.w3.org/2000/svg">
<g filter="url(#filter0_d_2439_2342)">
<path d="M38.7504 26C38.3404 26 38.0004 26.34 38.0004 26.75C38.0004 29.71 35.9404 32.19 33.1704 32.84L33.4404 32.39C33.6504 32.03 33.5404 31.57 33.1804 31.36C32.8304 31.15 32.3604 31.26 32.1504 31.62L31.1004 33.37C30.9604 33.6 30.9604 33.89 31.0904 34.12C31.2204 34.36 31.4704 34.5 31.7404 34.5C36.0104 34.5 39.4904 31.02 39.4904 26.75C39.5004 26.34 39.1604 26 38.7504 26Z" fill="#777777"/>
<path d="M23.75 11C19.48 11 16 14.48 16 18.75C16 19.16 16.34 19.5 16.75 19.5C17.16 19.5 17.5 19.16 17.5 18.75C17.5 15.79 19.56 13.31 22.33 12.66L22.06 13.11C21.85 13.47 21.96 13.93 22.32 14.14C22.67 14.35 23.14 14.24 23.35 13.88L24.4 12.13C24.53 11.9 24.54 11.62 24.4 11.38C24.27 11.15 24.02 11 23.75 11Z" fill="#5ED5A8"/>
<path d="M37.2502 19.4503C37.2502 22.5303 35.0102 25.0703 32.0802 25.5403C32.0802 25.5303 32.0802 25.5303 32.0802 25.5203C31.7902 21.7903 28.7702 18.7503 24.9902 18.4503C25.4602 15.5203 28.0002 13.2803 31.0802 13.2803C34.4902 13.2803 37.2502 16.0403 37.2502 19.4503Z" fill="#777777"/>
<path d="M25.5591 24.9806C25.5591 24.8306 25.3891 24.6006 25.1791 24.6006H23.1191V25.3506H25.1791C25.3891 25.3606 25.5591 25.1906 25.5591 24.9806Z" fill="#5ED5A8"/>
<path d="M25.5791 26.8604H25.1791H23.1191V27.6104H25.5891C25.9091 27.6104 26.1291 27.4104 26.1291 27.2304C26.1291 27.0504 25.8991 26.8604 25.5791 26.8604Z" fill="#5ED5A8"/>
<path d="M30.58 25.6307C30.35 22.6007 27.93 20.1807 24.9 19.9507C24.74 19.9407 24.59 19.9307 24.42 19.9307C21.01 19.9307 18.25 22.6907 18.25 26.1107C18.25 29.5207 21.01 32.2807 24.42 32.2807C27.83 32.2807 30.6 29.5207 30.6 26.1107C30.6 25.9407 30.59 25.7907 30.58 25.6307ZM25.58 29.1107H24.92V29.4907C24.92 29.9007 24.58 30.2407 24.17 30.2407C23.76 30.2407 23.42 29.9007 23.42 29.4907V29.1107H22.37C21.96 29.1107 21.62 28.7707 21.62 28.3607V26.1107V23.8607C21.62 23.4507 21.96 23.1107 22.37 23.1107H23.42V22.7307C23.42 22.3207 23.76 21.9807 24.17 21.9807C24.58 21.9807 24.92 22.3207 24.92 22.7307V23.1107H25.18C26.18 23.1107 27.06 23.9907 27.06 24.9907C27.06 25.2807 26.99 25.5507 26.87 25.8007C27.33 26.1407 27.62 26.6607 27.62 27.2407C27.62 28.2707 26.71 29.1107 25.58 29.1107Z" fill="#5ED5A8"/>
</g>
<defs>
<filter id="filter0_d_2439_2342" x="0" y="0" width="55.4902" height="55.5" filterUnits="userSpaceOnUse" color-interpolation-filters="sRGB">
<feFlood flood-opacity="0" result="BackgroundImageFix"/>
<feColorMatrix in="SourceAlpha" type="matrix" values="0 0 0 0 0 0 0 0 0 0 0 0 0 0 0 0 0 0 127 0" result="hardAlpha"/>
<feOffset dy="5"/>
<feGaussianBlur stdDeviation="8"/>
<feComposite in2="hardAlpha" operator="out"/>
<feColorMatrix type="matrix" values="0 0 0 0 0.368627 0 0 0 0 0.835294 0 0 0 0 0.658824 0 0 0 0.25 0"/>
<feBlend mode="normal" in2="BackgroundImageFix" result="effect1_dropShadow_2439_2342"/>
<feBlend mode="normal" in="SourceGraphic" in2="effect1_dropShadow_2439_2342" result="shape"/>
</filter>
</defs>
</svg>
