<svg width="51" height="53" viewBox="0 0 51 53" fill="none" xmlns="http://www.w3.org/2000/svg">
<g filter="url(#filter0_d_858_6696)">
<path opacity="0.4" d="M31.7789 11C31.2789 11 30.8789 11.4 30.8789 11.9V16.55C30.8789 17.05 31.2789 17.45 31.7789 17.45C32.2789 17.45 32.6789 17.05 32.6789 16.55V11.9C32.6789 11.4 32.2789 11 31.7789 11Z" fill="#747E87"/>
<path d="M25.2691 24.9502C24.7691 24.9502 24.3691 25.3502 24.3691 25.8502V30.5002C24.3691 31.0002 24.7691 31.4002 25.2691 31.4002C25.7691 31.4002 26.1691 31.0002 26.1691 30.5002V25.8502C26.1691 25.3602 25.7691 24.9502 25.2691 24.9502Z" fill="#5ED5A8"/>
<path opacity="0.4" d="M18.7594 11C18.2594 11 17.8594 11.4 17.8594 11.9V16.55C17.8594 17.05 18.2594 17.45 18.7594 17.45C19.2594 17.45 19.6594 17.05 19.6594 16.55V11.9C19.6594 11.4 19.2494 11 18.7594 11Z" fill="#747E87"/>
<path opacity="0.4" d="M20.62 19.3701H16.9C16.4 19.3701 16 19.7701 16 20.2701C16 20.7701 16.4 21.1701 16.9 21.1701H17.86V30.5001C17.86 31.0001 18.26 31.4001 18.76 31.4001C19.26 31.4001 19.66 31.0001 19.66 30.5001V21.1701H20.62C21.12 21.1701 21.52 20.7701 21.52 20.2701C21.52 19.7701 21.11 19.3701 20.62 19.3701Z" fill="#747E87"/>
<path opacity="0.4" d="M33.6395 19.3701H29.9195C29.4195 19.3701 29.0195 19.7701 29.0195 20.2701C29.0195 20.7701 29.4195 21.1701 29.9195 21.1701H30.8795V30.5001C30.8795 31.0001 31.2795 31.4001 31.7795 31.4001C32.2795 31.4001 32.6795 31.0001 32.6795 30.5001V21.1701H33.6395C34.1395 21.1701 34.5395 20.7701 34.5395 20.2701C34.5395 19.7701 34.1395 19.3701 33.6395 19.3701Z" fill="#747E87"/>
<path d="M27.1298 21.23H26.1698V11.9C26.1698 11.4 25.7698 11 25.2698 11C24.7698 11 24.3698 11.4 24.3698 11.9V21.23H23.4098C22.9098 21.23 22.5098 21.63 22.5098 22.13C22.5098 22.63 22.9098 23.03 23.4098 23.03H27.1298C27.6298 23.03 28.0298 22.63 28.0298 22.13C28.0298 21.63 27.6298 21.23 27.1298 21.23Z" fill="#5ED5A8"/>
</g>
<defs>
<filter id="filter0_d_858_6696" x="0" y="0" width="50.5391" height="52.4004" filterUnits="userSpaceOnUse" color-interpolation-filters="sRGB">
<feFlood flood-opacity="0" result="BackgroundImageFix"/>
<feColorMatrix in="SourceAlpha" type="matrix" values="0 0 0 0 0 0 0 0 0 0 0 0 0 0 0 0 0 0 127 0" result="hardAlpha"/>
<feOffset dy="5"/>
<feGaussianBlur stdDeviation="8"/>
<feComposite in2="hardAlpha" operator="out"/>
<feColorMatrix type="matrix" values="0 0 0 0 0.368627 0 0 0 0 0.835294 0 0 0 0 0.658824 0 0 0 0.25 0"/>
<feBlend mode="normal" in2="BackgroundImageFix" result="effect1_dropShadow_858_6696"/>
<feBlend mode="normal" in="SourceGraphic" in2="effect1_dropShadow_858_6696" result="shape"/>
</filter>
</defs>
</svg>
