<svg width="9" height="9" viewBox="0 0 9 9" fill="none" xmlns="http://www.w3.org/2000/svg">
<path fill-rule="evenodd" clip-rule="evenodd" d="M0.300134 4.65487C0.492758 4.84697 0.753684 4.95487 1.02571 4.95487C1.29774 4.95487 1.55866 4.84697 1.75129 4.65487L4.65435 1.75149C4.84642 1.55884 4.95431 1.29788 4.95431 1.02583C4.95431 0.753769 4.84642 0.492813 4.65435 0.300168C4.46171 0.10795 4.2007 0 3.92858 0C3.65646 0 3.39545 0.10795 3.20281 0.300168L0.300134 3.20317C0.107938 3.39583 0 3.65687 0 3.92902C0 4.20117 0.107938 4.46221 0.300134 4.65487ZM4.35227 7.25567L7.25496 4.35265C7.4476 4.16043 7.70861 4.05248 7.98073 4.05248C8.25283 4.05248 8.51386 4.16043 8.70647 4.35265C8.89868 4.54532 9.00662 4.80635 9.00662 5.07851C9.00662 5.35066 8.89868 5.61169 8.70647 5.80436L5.80381 8.70735C5.61117 8.89958 5.35016 9.00753 5.07804 9.00753C4.80592 9.00753 4.54491 8.89958 4.35227 8.70735C4.16007 8.51471 4.05213 8.25365 4.05213 7.98153C4.05213 7.70937 4.16007 7.44834 4.35227 7.25567ZM4.13984 5.89213C3.86774 5.89213 3.60671 5.78418 3.4141 5.59196C3.22189 5.39929 3.11395 5.13826 3.11395 4.86611C3.11395 4.59395 3.22189 4.33292 3.4141 4.14026L4.13984 3.41443C4.33248 3.2222 4.59349 3.11425 4.86561 3.11425C5.13773 3.11425 5.39874 3.2222 5.59138 3.41443C5.78358 3.60707 5.89152 3.86813 5.89152 4.14026C5.89152 4.41241 5.78358 4.67344 5.59138 4.86611L4.86561 5.59196C4.67297 5.78418 4.41196 5.89213 4.13984 5.89213Z" fill="white"/>
</svg>
