<svg width="52" height="52" viewBox="0 0 52 52" fill="none" xmlns="http://www.w3.org/2000/svg">
<g filter="url(#filter0_d_2439_2361)">
<path d="M30 17H22V25H30V17Z" fill="#5ED5A8"/>
<path d="M16 28C16 29.65 17.35 31 19 31C20.65 31 22 29.65 22 28V25H19C17.35 25 16 26.35 16 28Z" fill="#5ED5A8"/>
<path d="M19 11C17.35 11 16 12.35 16 14C16 15.65 17.35 17 19 17H22V14C22 12.35 20.65 11 19 11Z" fill="#777777"/>
<path d="M36 14C36 12.35 34.65 11 33 11C31.35 11 30 12.35 30 14V17H33C34.65 17 36 15.65 36 14Z" fill="#5ED5A8"/>
<path d="M33 25H30V28C30 29.65 31.35 31 33 31C34.65 31 36 29.65 36 28C36 26.35 34.65 25 33 25Z" fill="#777777"/>
</g>
<defs>
<filter id="filter0_d_2439_2361" x="0" y="0" width="52" height="52" filterUnits="userSpaceOnUse" color-interpolation-filters="sRGB">
<feFlood flood-opacity="0" result="BackgroundImageFix"/>
<feColorMatrix in="SourceAlpha" type="matrix" values="0 0 0 0 0 0 0 0 0 0 0 0 0 0 0 0 0 0 127 0" result="hardAlpha"/>
<feOffset dy="5"/>
<feGaussianBlur stdDeviation="8"/>
<feComposite in2="hardAlpha" operator="out"/>
<feColorMatrix type="matrix" values="0 0 0 0 0.368627 0 0 0 0 0.835294 0 0 0 0 0.658824 0 0 0 0.25 0"/>
<feBlend mode="normal" in2="BackgroundImageFix" result="effect1_dropShadow_2439_2361"/>
<feBlend mode="normal" in="SourceGraphic" in2="effect1_dropShadow_2439_2361" result="shape"/>
</filter>
</defs>
</svg>
