<svg width="47" height="52" viewBox="0 0 47 52" fill="none" xmlns="http://www.w3.org/2000/svg">
<g filter="url(#filter0_d_2439_1009)">
<path d="M23.0391 11C20.4191 11 18.2891 13.13 18.2891 15.75C18.2891 18.32 20.2991 20.4 22.9191 20.49C22.9991 20.48 23.0791 20.48 23.1391 20.49C23.1591 20.49 23.1691 20.49 23.1891 20.49C23.1991 20.49 23.1991 20.49 23.2091 20.49C25.7691 20.4 27.7791 18.32 27.7891 15.75C27.7891 13.13 25.6591 11 23.0391 11Z" fill="#777777"/>
<path fill-rule="evenodd" clip-rule="evenodd" d="M17.97 23.1499C20.78 21.2899 25.33 21.2899 28.12 23.1499C29.38 23.9899 30.07 25.1299 30.08 26.3599C30.08 27.5999 29.38 28.7399 28.12 29.5899C26.72 30.5299 24.88 30.9999 23.04 30.9999C21.2 30.9999 19.36 30.5299 17.96 29.5899C16.7 28.7499 16 27.6099 16 26.3799C16 25.1499 16.7 23.9999 17.97 23.1499ZM23.79 25.6299H25.04C25.45 25.6299 25.79 25.9699 25.79 26.3799C25.79 26.7899 25.45 27.1299 25.04 27.1299H23.79V28.3799C23.79 28.7899 23.45 29.1299 23.04 29.1299C22.63 29.1299 22.29 28.7899 22.29 28.3799V27.1299H21.04C20.63 27.1299 20.29 26.7899 20.29 26.3799C20.29 25.9699 20.63 25.6299 21.04 25.6299H22.29V24.3799C22.29 23.9699 22.63 23.6299 23.04 23.6299C23.45 23.6299 23.79 23.9699 23.79 24.3799V25.6299Z" fill="#5ED5A8"/>
</g>
<defs>
<filter id="filter0_d_2439_1009" x="0" y="0" width="46.0801" height="52" filterUnits="userSpaceOnUse" color-interpolation-filters="sRGB">
<feFlood flood-opacity="0" result="BackgroundImageFix"/>
<feColorMatrix in="SourceAlpha" type="matrix" values="0 0 0 0 0 0 0 0 0 0 0 0 0 0 0 0 0 0 127 0" result="hardAlpha"/>
<feOffset dy="5"/>
<feGaussianBlur stdDeviation="8"/>
<feComposite in2="hardAlpha" operator="out"/>
<feColorMatrix type="matrix" values="0 0 0 0 0.368627 0 0 0 0 0.835294 0 0 0 0 0.658824 0 0 0 0.25 0"/>
<feBlend mode="normal" in2="BackgroundImageFix" result="effect1_dropShadow_2439_1009"/>
<feBlend mode="normal" in="SourceGraphic" in2="effect1_dropShadow_2439_1009" result="shape"/>
</filter>
</defs>
</svg>
