<svg width="16" height="18" viewBox="0 0 16 18" fill="none" xmlns="http://www.w3.org/2000/svg">
<path fill-rule="evenodd" clip-rule="evenodd" d="M2.38435 3.58957L3.65101 2.91652L3.80003 3.21565L8.41964 0.523478L8.1216 0.29913L7.74905 0.0747826L7.60003 0L3.32919e-05 4.41217V4.56174L2.16082 3.36522L2.38435 3.58957ZM2.38431 6.43129L6.03529 4.2626L6.18431 4.56173L10.8784 1.86955L10.5059 1.64521L10.1333 1.49564L9.98431 1.42086L0 7.17912V7.32868L2.16078 6.13216L2.38431 6.43129ZM7.22745 5.01044L2.38431 7.7774L2.16078 7.47827L0 8.74957V8.52523L11.1765 2.09392L11.3255 2.1687L11.698 2.39305L12.0706 2.54262L7.37647 5.23479L7.22745 5.01044ZM2.38431 9.12347L8.41961 5.68347L8.56863 5.90782L13.2627 3.29043L12.8902 3.06608L12.5176 2.84173L12.3686 2.76695L0 9.94608V10.0956L2.16078 8.89912L2.38431 9.12347ZM9.61176 6.35653L2.38431 10.5444L2.16078 10.2452L0 11.5165V11.2922L13.5608 3.44001L13.7843 3.58958L14.0824 3.73914L14.4549 3.96349L9.76078 6.65566L9.61176 6.35653ZM14.902 4.26261L14.7529 4.11304L0 12.713V12.8626L2.16078 11.6661L2.38431 11.9652L9.61176 7.70261L9.76078 8.00174L15.2 4.93565V4.41217L14.902 4.26261ZM2.16076 13.0122L0.968602 13.76L0.745073 13.6104L15.2 5.30955V6.28173L9.76076 9.4226L9.61174 9.12346L2.30978 13.3113L2.16076 13.0122ZM9.6117 10.5443L9.76072 10.8435L15.1999 7.62782V6.65564L1.93719 14.3583L2.16072 14.433L3.35288 13.6852L3.5764 13.9843L9.6117 10.5443ZM4.61964 14.433L3.35297 15.1061L3.12944 15.0313L15.2 8.07651V9.04868L9.76081 12.1896L9.61179 11.8904L4.76865 14.7322L4.61964 14.433ZM4.54508 15.7791L5.81175 15.1061L5.96077 15.4052L9.61175 13.3113L9.76077 13.6104L15.2 10.4696V9.42262L4.32156 15.7044L4.54508 15.7791ZM5.73733 16.527L5.5138 16.3774L15.2001 10.8435V11.8157L9.76086 14.9565L9.61184 14.6574L7.15302 16.0783L7.004 15.7791L5.73733 16.527ZM6.92938 17.2L8.12154 16.4522L8.34507 16.7513L9.61174 16.0783L9.76075 16.3774L15.2 13.2365V12.1896L6.78036 17.1252L6.92938 17.2ZM9.31373 0.972169L9.68628 1.19652L4.99216 3.88869L4.84314 3.58956L2.38431 5.01043L2.16078 4.7113L0 5.9826V5.75826L8.79216 0.673039L8.94118 0.822604L9.31373 0.972169Z" fill="white"/>
</svg>
