<svg width="52" height="52" viewBox="0 0 52 52" fill="none" xmlns="http://www.w3.org/2000/svg">
<g filter="url(#filter0_d_2439_2353)">
<path d="M25.699 11.204L23.289 16.814H20.879C20.479 16.814 20.089 16.844 19.709 16.924L20.709 14.524L20.749 14.434L20.809 14.274C20.839 14.204 20.859 14.144 20.889 14.094C22.049 11.404 23.349 10.564 25.699 11.204Z" fill="#777777"/>
<path d="M32.4889 17.0837L32.4689 17.0737C31.8689 16.9037 31.2589 16.8137 30.6389 16.8137H24.3789L26.6289 11.5837L26.6589 11.5137C26.7989 11.5637 26.9489 11.6337 27.0989 11.6837L29.3089 12.6137C30.5389 13.1237 31.3989 13.6537 31.9289 14.2937C32.0189 14.4137 32.0989 14.5237 32.1789 14.6537C32.2689 14.7937 32.3389 14.9337 32.3789 15.0837C32.4189 15.1737 32.4489 15.2537 32.4689 15.3437C32.6189 15.8537 32.6289 16.4337 32.4889 17.0837Z" fill="#777777"/>
<path d="M26.2793 26.6542H26.5293C26.8293 26.6542 27.0793 26.3842 27.0793 26.0542C27.0793 25.6342 26.9593 25.5742 26.6993 25.4742L26.2793 25.3242V26.6542Z" fill="#5ED5A8"/>
<path d="M32.05 18.5145C31.6 18.3845 31.13 18.3145 30.64 18.3145H20.88C20.2 18.3145 19.56 18.4445 18.96 18.7045C17.22 19.4545 16 21.1845 16 23.1945V25.1445C16 25.3845 16.02 25.6145 16.05 25.8545C16.27 29.0345 17.97 30.7345 21.15 30.9445C21.38 30.9745 21.61 30.9945 21.86 30.9945H29.66C33.36 30.9945 35.31 29.2345 35.5 25.7345C35.51 25.5445 35.52 25.3445 35.52 25.1445V23.1945C35.52 20.9845 34.05 19.1245 32.05 18.5145ZM27.04 24.4945C27.5 24.6545 28.12 24.9945 28.12 26.0545C28.12 26.9645 27.41 27.6945 26.53 27.6945H26.28V27.9145C26.28 28.2045 26.05 28.4345 25.76 28.4345C25.47 28.4345 25.24 28.2045 25.24 27.9145V27.6945H25.15C24.19 27.6945 23.4 26.8845 23.4 25.8845C23.4 25.5945 23.63 25.3645 23.92 25.3645C24.21 25.3645 24.44 25.5945 24.44 25.8845C24.44 26.3045 24.76 26.6545 25.15 26.6545H25.24V24.9645L24.48 24.6945C24.02 24.5345 23.4 24.1945 23.4 23.1345C23.4 22.2245 24.11 21.4945 24.99 21.4945H25.24V21.2745C25.24 20.9845 25.47 20.7545 25.76 20.7545C26.05 20.7545 26.28 20.9845 26.28 21.2745V21.4945H26.37C27.33 21.4945 28.12 22.3045 28.12 23.3045C28.12 23.5945 27.89 23.8245 27.6 23.8245C27.31 23.8245 27.08 23.5945 27.08 23.3045C27.08 22.8845 26.76 22.5345 26.37 22.5345H26.28V24.2245L27.04 24.4945Z" fill="#5ED5A8"/>
<path d="M24.4395 23.1342C24.4395 23.5542 24.5595 23.6142 24.8195 23.7142L25.2395 23.8642V22.5342H24.9895C24.6795 22.5342 24.4395 22.8042 24.4395 23.1342Z" fill="#5ED5A8"/>
</g>
<defs>
<filter id="filter0_d_2439_2353" x="0" y="0" width="51.5195" height="51.9941" filterUnits="userSpaceOnUse" color-interpolation-filters="sRGB">
<feFlood flood-opacity="0" result="BackgroundImageFix"/>
<feColorMatrix in="SourceAlpha" type="matrix" values="0 0 0 0 0 0 0 0 0 0 0 0 0 0 0 0 0 0 127 0" result="hardAlpha"/>
<feOffset dy="5"/>
<feGaussianBlur stdDeviation="8"/>
<feComposite in2="hardAlpha" operator="out"/>
<feColorMatrix type="matrix" values="0 0 0 0 0.368627 0 0 0 0 0.835294 0 0 0 0 0.658824 0 0 0 0.25 0"/>
<feBlend mode="normal" in2="BackgroundImageFix" result="effect1_dropShadow_2439_2353"/>
<feBlend mode="normal" in="SourceGraphic" in2="effect1_dropShadow_2439_2353" result="shape"/>
</filter>
</defs>
</svg>
